<?xml version="1.0" encoding="utf-8"?>
<!-- Generator: Adobe Illustrator 16.0.4, SVG Export Plug-In . SVG Version: 6.00 Build 0)  -->
<!DOCTYPE svg PUBLIC "-//W3C//DTD SVG 1.1//EN" "http://www.w3.org/Graphics/SVG/1.1/DTD/svg11.dtd">
<svg version="1.1" id="Layer_1" xmlns="http://www.w3.org/2000/svg" xmlns:xlink="http://www.w3.org/1999/xlink" x="0px" y="0px"
	 width="48px" height="48px" viewBox="0 0 48 48" enable-background="new 0 0 48 48" xml:space="preserve">
<path fill="#231F20" stroke="#000000" stroke-miterlimit="10" d="M30.161,10.027c-0.176-0.174-0.402-0.263-0.635-0.263
	c-0.229,0-0.458,0.088-0.634,0.263L15.43,23.491c-0.352,0.351-0.352,0.919,0,1.27l13.462,13.465c0.351,0.35,0.919,0.35,1.269,0
	c0.353-0.353,0.353-0.919,0-1.27l-12.829-12.83l12.829-12.829C30.514,10.947,30.514,10.378,30.161,10.027z"/>
<path stroke="#000000" stroke-miterlimit="10" d="M24,43.391c-10.691,0-19.391-8.699-19.391-19.39
	c0-10.692,8.699-19.39,19.391-19.39c10.691,0,19.391,8.698,19.391,19.39C43.391,34.691,34.69,43.391,24,43.391z M24,6.327
	C14.253,6.327,6.326,14.256,6.326,24S14.253,41.673,24,41.673c9.745,0,17.674-7.928,17.674-17.672S33.745,6.327,24,6.327z"/>
</svg>
